<svg width="251" height="247" viewBox="0 0 251 247" fill="none" xmlns="http://www.w3.org/2000/svg">
<g filter="url(#filter0_i_3_71)">
<rect width="47.5762" height="241.52" transform="matrix(0.999951 -0.0098586 0.0104355 0.999946 0.0203552 4.39648)" fill="#A70000"/>
<rect width="47.5856" height="243.679" transform="matrix(0.999951 -0.0098586 0.0104355 0.999946 200.761 0.469238)" fill="#A70000"/>
<path d="M47.7256 3.92834L137.697 118.959L128.249 130.633C121.302 139.217 110.153 139.12 103.346 130.417L25.6995 31.1445L47.7256 3.92834Z" fill="#A70000"/>
<path d="M103.145 125.454L200.721 0.678888L233.608 14.0235L148.349 123.048C141.546 131.747 127.733 135.431 117.496 131.277L103.145 125.454Z" fill="#A70000"/>
</g>
<g filter="url(#filter1_i_3_71)">
<rect width="156.577" height="18.0272" transform="matrix(-0.999958 0.00921246 0.0155844 -0.999879 203.915 144.189)" fill="#A70000"/>
<rect width="172.605" height="21.7006" transform="matrix(-0.821 0.591154 -0.607556 -0.778945 202.918 143.38)" fill="#A70000"/>
<rect width="156.568" height="17.3004" transform="matrix(-0.999958 0.00921247 0.0155844 -0.999879 204.862 243.98)" fill="#A70000"/>
</g>
<defs>
<filter id="filter0_i_3_71" x="0.0203552" y="0.00012207" width="250.867" height="249.903" filterUnits="userSpaceOnUse" color-interpolation-filters="sRGB">
<feFlood flood-opacity="0" result="BackgroundImageFix"/>
<feBlend mode="normal" in="SourceGraphic" in2="BackgroundImageFix" result="shape"/>
<feColorMatrix in="SourceAlpha" type="matrix" values="0 0 0 0 0 0 0 0 0 0 0 0 0 0 0 0 0 0 127 0" result="hardAlpha"/>
<feOffset dy="4"/>
<feGaussianBlur stdDeviation="2"/>
<feComposite in2="hardAlpha" operator="arithmetic" k2="-1" k3="1"/>
<feColorMatrix type="matrix" values="0 0 0 0 0 0 0 0 0 0 0 0 0 0 0 0 0 0 0.25 0"/>
<feBlend mode="normal" in2="shape" result="effect1_innerShadow_3_71"/>
</filter>
<filter id="filter1_i_3_71" x="47.3447" y="126.164" width="157.787" height="123.259" filterUnits="userSpaceOnUse" color-interpolation-filters="sRGB">
<feFlood flood-opacity="0" result="BackgroundImageFix"/>
<feBlend mode="normal" in="SourceGraphic" in2="BackgroundImageFix" result="shape"/>
<feColorMatrix in="SourceAlpha" type="matrix" values="0 0 0 0 0 0 0 0 0 0 0 0 0 0 0 0 0 0 127 0" result="hardAlpha"/>
<feOffset dy="4"/>
<feGaussianBlur stdDeviation="2"/>
<feComposite in2="hardAlpha" operator="arithmetic" k2="-1" k3="1"/>
<feColorMatrix type="matrix" values="0 0 0 0 0 0 0 0 0 0 0 0 0 0 0 0 0 0 0.25 0"/>
<feBlend mode="normal" in2="shape" result="effect1_innerShadow_3_71"/>
</filter>
</defs>
</svg>
