<svg width="90" height="90" viewBox="0 0 90 90" fill="none" xmlns="http://www.w3.org/2000/svg">
<circle cx="45" cy="45" r="45" fill="#5B5B5B"/>
<g filter="url(#filter0_i_3_56)">
<rect width="12.0956" height="61.4033" transform="matrix(0.999951 -0.0098586 0.0104355 0.999946 13.0013 15.2659)" fill="#A70000"/>
<rect width="12.098" height="62.2244" transform="matrix(0.999951 -0.0098586 0.0104355 0.999946 64.0371 14.2672)" fill="#A70000"/>
<path d="M25.1297 15.1466L48.0038 44.3917C44.9111 48.2131 39.9473 48.1701 36.9168 44.2956L19.5299 22.066L25.1297 15.1466Z" fill="#A70000"/>
<path d="M39.2193 46.043L64.0268 14.3206L72.388 17.7133L53.1364 42.3312C50.068 46.2549 43.8371 47.9167 39.2193 46.043Z" fill="#A70000"/>
</g>
<g filter="url(#filter1_i_3_56)">
<rect width="39.8076" height="4.58319" transform="matrix(-0.999958 0.00921246 0.0155844 -0.999879 64.8387 50.8062)" fill="#A70000"/>
<rect width="43.8826" height="5.51711" transform="matrix(-0.821 0.591154 -0.607556 -0.778945 64.5853 50.6006)" fill="#A70000"/>
<rect width="39.8055" height="4.3984" transform="matrix(-0.999958 0.00921247 0.0155844 -0.999879 65.0795 76.1769)" fill="#A70000"/>
</g>
<defs>
<filter id="filter0_i_3_56" x="13.0013" y="14.1479" width="63.7826" height="66.5179" filterUnits="userSpaceOnUse" color-interpolation-filters="sRGB">
<feFlood flood-opacity="0" result="BackgroundImageFix"/>
<feBlend mode="normal" in="SourceGraphic" in2="BackgroundImageFix" result="shape"/>
<feColorMatrix in="SourceAlpha" type="matrix" values="0 0 0 0 0 0 0 0 0 0 0 0 0 0 0 0 0 0 127 0" result="hardAlpha"/>
<feOffset dy="4"/>
<feGaussianBlur stdDeviation="2"/>
<feComposite in2="hardAlpha" operator="arithmetic" k2="-1" k3="1"/>
<feColorMatrix type="matrix" values="0 0 0 0 0 0 0 0 0 0 0 0 0 0 0 0 0 0 0.25 0"/>
<feBlend mode="normal" in2="shape" result="effect1_innerShadow_3_56"/>
</filter>
<filter id="filter1_i_3_56" x="25.0328" y="46.2235" width="40.1152" height="34.3201" filterUnits="userSpaceOnUse" color-interpolation-filters="sRGB">
<feFlood flood-opacity="0" result="BackgroundImageFix"/>
<feBlend mode="normal" in="SourceGraphic" in2="BackgroundImageFix" result="shape"/>
<feColorMatrix in="SourceAlpha" type="matrix" values="0 0 0 0 0 0 0 0 0 0 0 0 0 0 0 0 0 0 127 0" result="hardAlpha"/>
<feOffset dy="4"/>
<feGaussianBlur stdDeviation="2"/>
<feComposite in2="hardAlpha" operator="arithmetic" k2="-1" k3="1"/>
<feColorMatrix type="matrix" values="0 0 0 0 0 0 0 0 0 0 0 0 0 0 0 0 0 0 0.25 0"/>
<feBlend mode="normal" in2="shape" result="effect1_innerShadow_3_56"/>
</filter>
</defs>
</svg>
